{
  "accessors": [
    {
      "bufferView": 3,
      "componentType": 5126,
      "count": 902,
      "max": [
        1.5584161281585693,
        2.8258681297302246,
        0.9577365517616272
      ],
      "min": [
        -0.9577365517616272,
        0.012900585308670998,
        -0.9577365517616272
      ],
      "type": "VEC3"
    },
    {
      "bufferView": 3,
      "byteOffset": 10824,
      "componentType": 5126,
      "count": 902,
      "max": [
        0.9999951720237732,
        0.9998847246170044,
        0.9999951720237732
      ],
      "min": [
        -0.9999951720237732,
        -1.0,
        -0.9999951720237732
      ],
      "type": "VEC3"
    },
    {
      "bufferView": 2,
      "componentType": 5126,
      "count": 902,
      "max": [
        0.978927731513977,
        0.962902307510376
      ],
      "min": [
        0.047466643154621124,
        0.006720796227455139
      ],
      "type": "VEC2"
    },
    {
      "bufferView": 1,
      "componentType": 5125,
      "count": 4548,
      "type": "SCALAR"
    },
    {
      "bufferView": 5,
      "componentType": 5126,
      "count": 4,
      "max": [
        1.0,
        0.2823067307472229,
        2.3841863594498136e-07,
        0.0,
        9.265941347536e-10,
        1.0,
        0.32483017444610596,
        0.0,
        0.11298030614852905,
        0.003886460792273283,
        1.0,
        0.0,
        0.42481729388237,
        0.0,
        0.0003035157569684088,
        1.0
      ],
      "min": [
        0.9590388536453247,
        0.0,
        -0.023398516699671745,
        0.0,
        -0.2597692012786865,
        0.9093981981277466,
        -0.0038864160887897015,
        0.0,
        -2.3841684537728725e-07,
        -0.3054465055465698,
        0.9454830288887024,
        0.0,
        -7.236382326691881e-11,
        -1.5091869831085205,
        -0.128293976187706,
        1.0
      ],
      "type": "MAT4"
    },
    {
      "bufferView": 0,
      "componentType": 5123,
      "count": 902,
      "type": "VEC4"
    },
    {
      "bufferView": 4,
      "componentType": 5126,
      "count": 902,
      "max": [
        1.0,
        0.4999186098575592,
        0.1289927363395691,
        0.0
      ],
      "min": [
        0.4824260175228119,
        0.0,
        0.0,
        0.0
      ],
      "type": "VEC4"
    },
    {
      "bufferView": 6,
      "componentType": 5126,
      "count": 20,
      "max": [
        0.8333333134651184
      ],
      "min": [
        0.0416666679084301
      ],
      "type": "SCALAR"
    },
    {
      "bufferView": 8,
      "componentType": 5126,
      "count": 20,
      "max": [
        -0.006450561340898275,
        -0.0011588442139327526,
        0.03115042857825756,
        0.9999781847000122
      ],
      "min": [
        -0.006493647117167711,
        -0.0012474816758185625,
        -0.0031065575312823057,
        0.9994931221008301
      ],
      "type": "VEC4"
    },
    {
      "bufferView": 6,
      "byteOffset": 80,
      "componentType": 5126,
      "count": 20,
      "max": [
        0.8333333134651184
      ],
      "min": [
        0.0416666679084301
      ],
      "type": "SCALAR"
    },
    {
      "bufferView": 7,
      "componentType": 5126,
      "count": 20,
      "max": [
        0.9999998807907104,
        0.9999999403953552,
        0.9999999403953552
      ],
      "min": [
        0.825451135635376,
        0.8254510164260864,
        0.8254509568214417
      ],
      "type": "VEC3"
    },
    {
      "bufferView": 6,
      "byteOffset": 160,
      "componentType": 5126,
      "count": 20,
      "max": [
        0.8333333134651184
      ],
      "min": [
        0.0416666679084301
      ],
      "type": "SCALAR"
    },
    {
      "bufferView": 7,
      "byteOffset": 240,
      "componentType": 5126,
      "count": 20,
      "max": [
        0.010302195325493813,
        0.8167319893836975,
        -0.29106152057647705
      ],
      "min": [
        0.009677639231085777,
        0.7499760985374451,
        -0.3827457129955292
      ],
      "type": "VEC3"
    },
    {
      "bufferView": 6,
      "byteOffset": 240,
      "componentType": 5126,
      "count": 20,
      "max": [
        0.8333333134651184
      ],
      "min": [
        0.0416666679084301
      ],
      "type": "SCALAR"
    },
    {
      "bufferView": 8,
      "byteOffset": 320,
      "componentType": 5126,
      "count": 20,
      "max": [
        -0.15697279572486877,
        -0.0331706739962101,
        0.05288632586598396,
        0.9776535630226135
      ],
      "min": [
        -0.2471914291381836,
        -0.09505069255828857,
        -0.1357206106185913,
        0.9614442586898804
      ],
      "type": "VEC4"
    },
    {
      "bufferView": 6,
      "byteOffset": 320,
      "componentType": 5126,
      "count": 20,
      "max": [
        0.8333333134651184
      ],
      "min": [
        0.0416666679084301
      ],
      "type": "SCALAR"
    },
    {
      "bufferView": 7,
      "byteOffset": 480,
      "componentType": 5126,
      "count": 20,
      "max": [
        1.0000001192092896,
        1.000000238418579,
        1.0
      ],
      "min": [
        0.9999998211860657,
        1.0,
        0.9999997019767761
      ],
      "type": "VEC3"
    },
    {
      "bufferView": 6,
      "byteOffset": 400,
      "componentType": 5126,
      "count": 18,
      "max": [
        0.8333333134651184
      ],
      "min": [
        0.0416666679084301
      ],
      "type": "SCALAR"
    },
    {
      "bufferView": 7,
      "byteOffset": 720,
      "componentType": 5126,
      "count": 18,
      "max": [
        1.8531887135964098e-10,
        0.18550969660282135,
        8.458300726488233e-11
      ],
      "min": [
        -1.8760744346923985e-10,
        -0.1397794634103775,
        -1.1641539121587385e-10
      ],
      "type": "VEC3"
    },
    {
      "bufferView": 6,
      "byteOffset": 472,
      "componentType": 5126,
      "count": 15,
      "max": [
        0.8333333134651184
      ],
      "min": [
        0.0416666679084301
      ],
      "type": "SCALAR"
    },
    {
      "bufferView": 8,
      "byteOffset": 640,
      "componentType": 5126,
      "count": 15,
      "max": [
        0.00194322329480201,
        1.1920910480966995e-07,
        2.3164899165539765e-10,
        0.9999980926513672
      ],
      "min": [
        0.0019432230619713664,
        1.1920910480966995e-07,
        2.3164895002203423e-10,
        0.9999980926513672
      ],
      "type": "VEC4"
    },
    {
      "bufferView": 6,
      "byteOffset": 532,
      "componentType": 5126,
      "count": 19,
      "max": [
        0.8333333134651184
      ],
      "min": [
        0.0416666679084301
      ],
      "type": "SCALAR"
    },
    {
      "bufferView": 7,
      "byteOffset": 936,
      "componentType": 5126,
      "count": 19,
      "max": [
        1.0,
        1.0615967512130737,
        1.0000009536743164
      ],
      "min": [
        1.0,
        0.7609467506408691,
        0.9999964237213135
      ],
      "type": "VEC3"
    },
    {
      "bufferView": 6,
      "byteOffset": 608,
      "componentType": 5126,
      "count": 20,
      "max": [
        0.8333333134651184
      ],
      "min": [
        0.0416666679084301
      ],
      "type": "SCALAR"
    },
    {
      "bufferView": 7,
      "byteOffset": 1164,
      "componentType": 5126,
      "count": 20,
      "max": [
        3.7121772322734614e-10,
        0.6332525610923767,
        1.530271687144591e-09
      ],
      "min": [
        -5.096098543155847e-10,
        0.6332523822784424,
        -1.027619322968576e-09
      ],
      "type": "VEC3"
    },
    {
      "bufferView": 6,
      "byteOffset": 688,
      "componentType": 5126,
      "count": 19,
      "max": [
        0.8333333134651184
      ],
      "min": [
        0.0416666679084301
      ],
      "type": "SCALAR"
    },
    {
      "bufferView": 8,
      "byteOffset": 880,
      "componentType": 5126,
      "count": 19,
      "max": [
        -0.006493646185845137,
        -0.0011588440975174308,
        -0.0031065570656210184,
        0.9999734163284302
      ],
      "min": [
        -0.006493647117167711,
        -0.0011588443303480744,
        -0.0031065575312823057,
        0.9999734163284302
      ],
      "type": "VEC4"
    },
    {
      "bufferView": 6,
      "byteOffset": 764,
      "componentType": 5126,
      "count": 19,
      "max": [
        0.8333333134651184
      ],
      "min": [
        0.0416666679084301
      ],
      "type": "SCALAR"
    },
    {
      "bufferView": 7,
      "byteOffset": 1404,
      "componentType": 5126,
      "count": 19,
      "max": [
        1.0000001192092896,
        1.0000001192092896,
        0.9999999403953552
      ],
      "min": [
        0.8384284377098083,
        0.838428258895874,
        0.8384283781051636
      ],
      "type": "VEC3"
    },
    {
      "bufferView": 6,
      "byteOffset": 840,
      "componentType": 5126,
      "count": 20,
      "max": [
        0.8333333134651184
      ],
      "min": [
        0.0416666679084301
      ],
      "type": "SCALAR"
    },
    {
      "bufferView": 7,
      "byteOffset": 1632,
      "componentType": 5126,
      "count": 20,
      "max": [
        0.011528708040714264,
        0.8656551241874695,
        -0.28343138098716736
      ],
      "min": [
        0.0009465058101341128,
        0.7791136503219604,
        -0.38274574279785156
      ],
      "type": "VEC3"
    },
    {
      "bufferView": 6,
      "byteOffset": 920,
      "componentType": 5126,
      "count": 19,
      "max": [
        0.8333333134651184
      ],
      "min": [
        0.0416666679084301
      ],
      "type": "SCALAR"
    },
    {
      "bufferView": 8,
      "byteOffset": 1184,
      "componentType": 5126,
      "count": 19,
      "max": [
        -0.06625311821699142,
        -0.032640520483255386,
        -0.04178160801529884,
        0.9963932037353516
      ],
      "min": [
        -0.25953108072280884,
        -0.04852748662233353,
        -0.1357206404209137,
        0.9555414319038391
      ],
      "type": "VEC4"
    },
    {
      "bufferView": 6,
      "byteOffset": 996,
      "componentType": 5126,
      "count": 19,
      "max": [
        0.8333333134651184
      ],
      "min": [
        0.0416666679084301
      ],
      "type": "SCALAR"
    },
    {
      "bufferView": 7,
      "byteOffset": 1872,
      "componentType": 5126,
      "count": 19,
      "max": [
        1.000000238418579,
        1.000000238418579,
        1.0
      ],
      "min": [
        0.9999998211860657,
        1.0,
        0.9999998211860657
      ],
      "type": "VEC3"
    }
  ],
  "animations": [
    {
      "channels": [
        {
          "sampler": 0,
          "target": {
            "node": 9,
            "path": "rotation"
          }
        },
        {
          "sampler": 1,
          "target": {
            "node": 9,
            "path": "scale"
          }
        },
        {
          "sampler": 2,
          "target": {
            "node": 10,
            "path": "translation"
          }
        },
        {
          "sampler": 3,
          "target": {
            "node": 10,
            "path": "rotation"
          }
        },
        {
          "sampler": 4,
          "target": {
            "node": 10,
            "path": "scale"
          }
        }
      ],
      "name": "idle",
      "samplers": [
        {
          "input": 7,
          "interpolation": "LINEAR",
          "output": 8
        },
        {
          "input": 9,
          "interpolation": "LINEAR",
          "output": 10
        },
        {
          "input": 11,
          "interpolation": "LINEAR",
          "output": 12
        },
        {
          "input": 13,
          "interpolation": "LINEAR",
          "output": 14
        },
        {
          "input": 15,
          "interpolation": "LINEAR",
          "output": 16
        }
      ]
    },
    {
      "channels": [
        {
          "sampler": 0,
          "target": {
            "node": 8,
            "path": "translation"
          }
        },
        {
          "sampler": 1,
          "target": {
            "node": 8,
            "path": "rotation"
          }
        },
        {
          "sampler": 2,
          "target": {
            "node": 8,
            "path": "scale"
          }
        },
        {
          "sampler": 3,
          "target": {
            "node": 9,
            "path": "translation"
          }
        },
        {
          "sampler": 4,
          "target": {
            "node": 9,
            "path": "rotation"
          }
        },
        {
          "sampler": 5,
          "target": {
            "node": 9,
            "path": "scale"
          }
        },
        {
          "sampler": 6,
          "target": {
            "node": 10,
            "path": "translation"
          }
        },
        {
          "sampler": 7,
          "target": {
            "node": 10,
            "path": "rotation"
          }
        },
        {
          "sampler": 8,
          "target": {
            "node": 10,
            "path": "scale"
          }
        }
      ],
      "name": "jump",
      "samplers": [
        {
          "input": 17,
          "interpolation": "LINEAR",
          "output": 18
        },
        {
          "input": 19,
          "interpolation": "LINEAR",
          "output": 20
        },
        {
          "input": 21,
          "interpolation": "LINEAR",
          "output": 22
        },
        {
          "input": 23,
          "interpolation": "LINEAR",
          "output": 24
        },
        {
          "input": 25,
          "interpolation": "LINEAR",
          "output": 26
        },
        {
          "input": 27,
          "interpolation": "LINEAR",
          "output": 28
        },
        {
          "input": 29,
          "interpolation": "LINEAR",
          "output": 30
        },
        {
          "input": 31,
          "interpolation": "LINEAR",
          "output": 32
        },
        {
          "input": 33,
          "interpolation": "LINEAR",
          "output": 34
        }
      ]
    }
  ],
  "asset": {
    "extras": {
      "author": "BunnyGame (https://sketchfab.com/bunnyGame)",
      "license": "CC-BY-4.0 (http://creativecommons.org/licenses/by/4.0/)",
      "source": "https://sketchfab.com/3d-models/sapling-b1681d058b4c4d348e058299a1b1bd52",
      "title": "Sapling"
    },
    "generator": "Sketchfab-15.1.0",
    "version": "2.0"
  },
  "bufferViews": [
    {
      "buffer": 0,
      "byteLength": 7216,
      "byteStride": 8,
      "name": "shortBufferViews",
      "target": 34962
    },
    {
      "buffer": 0,
      "byteLength": 18192,
      "byteOffset": 7216,
      "name": "floatBufferViews",
      "target": 34963
    },
    {
      "buffer": 0,
      "byteLength": 7216,
      "byteOffset": 25408,
      "byteStride": 8,
      "name": "floatBufferViews",
      "target": 34962
    },
    {
      "buffer": 0,
      "byteLength": 21648,
      "byteOffset": 32624,
      "byteStride": 12,
      "name": "floatBufferViews",
      "target": 34962
    },
    {
      "buffer": 0,
      "byteLength": 14432,
      "byteOffset": 54272,
      "byteStride": 16,
      "name": "floatBufferViews",
      "target": 34962
    },
    {
      "buffer": 0,
      "byteLength": 256,
      "byteOffset": 68704,
      "name": "floatBufferViews"
    },
    {
      "buffer": 0,
      "byteLength": 1072,
      "byteOffset": 68960,
      "name": "floatBufferViews"
    },
    {
      "buffer": 0,
      "byteLength": 2100,
      "byteOffset": 70032,
      "byteStride": 12,
      "name": "floatBufferViews"
    },
    {
      "buffer": 0,
      "byteLength": 1488,
      "byteOffset": 72132,
      "byteStride": 16,
      "name": "floatBufferViews"
    }
  ],
  "buffers": [
    {
      "byteLength": 73620,
      "uri": "scene.bin"
    }
  ],
  "images": [
    {
      "uri": "textures/Material.002_baseColor.png"
    }
  ],
  "materials": [
    {
      "doubleSided": true,
      "name": "Material.002",
      "pbrMetallicRoughness": {
        "baseColorTexture": {
          "index": 0
        },
        "metallicFactor": 0.0,
        "roughnessFactor": 0.5
      }
    }
  ],
  "meshes": [
    {
      "name": "Object_0",
      "primitives": [
        {
          "attributes": {
            "JOINTS_0": 5,
            "NORMAL": 1,
            "POSITION": 0,
            "TEXCOORD_0": 2,
            "WEIGHTS_0": 6
          },
          "indices": 3,
          "material": 0,
          "mode": 4
        }
      ]
    }
  ],
  "nodes": [
    {
      "children": [
        1
      ],
      "matrix": [
        1.0,
        0.0,
        0.0,
        0.0,
        0.0,
        2.220446049250313e-16,
        -1.0,
        0.0,
        0.0,
        1.0,
        2.220446049250313e-16,
        0.0,
        0.0,
        0.0,
        0.0,
        1.0
      ],
      "name": "Sketchfab_model"
    },
    {
      "children": [
        2
      ],
      "name": "root"
    },
    {
      "children": [
        3
      ],
      "matrix": [
        1.0,
        0.0,
        0.0,
        0.0,
        0.0,
        2.220446049250313e-16,
        1.0,
        0.0,
        0.0,
        -1.0,
        2.220446049250313e-16,
        0.0,
        0.0,
        0.0,
        0.0,
        1.0
      ],
      "name": "GLTF_SceneRootNode"
    },
    {
      "children": [
        4
      ],
      "matrix": [
        1.0,
        0.0,
        0.0,
        0.0,
        0.0,
        1.0,
        0.0,
        0.0,
        0.0,
        0.0,
        1.0,
        0.0,
        0.0,
        0.2072298526763916,
        0.0,
        1.0
      ],
      "name": "Armature_6"
    },
    {
      "children": [
        5,
        7,
        6
      ],
      "name": "GLTF_created_0"
    },
    {
      "children": [
        8
      ],
      "name": "GLTF_created_0_rootJoint"
    },
    {
      "name": "Roundcube_5"
    },
    {
      "mesh": 0,
      "name": "Object_7",
      "skin": 0
    },
    {
      "children": [
        9
      ],
      "name": "Bone_4",
      "rotation": [
        0.0019432230619713664,
        1.1920909059881524e-07,
        2.3164896389982204e-10,
        0.9999980926513672
      ],
      "scale": [
        1.0,
        0.9999999403953552,
        0.9999999403953552
      ],
      "translation": [
        0.0,
        -0.12913328409194946,
        0.0
      ]
    },
    {
      "children": [
        10
      ],
      "name": "Bone.002_3",
      "rotation": [
        -0.006493647117167711,
        -0.0011588440975174308,
        -0.0031065575312823057,
        0.9999734163284302
      ],
      "scale": [
        0.9999998807907104,
        0.9999999403953552,
        0.9999999403953552
      ],
      "translation": [
        -1.060413692619e-12,
        0.6332525014877319,
        2.909977536713626e-10
      ]
    },
    {
      "name": "Bone.001_2",
      "rotation": [
        -0.15697278082370758,
        -0.03366055712103844,
        -0.1357206106185913,
        0.9776535630226135
      ],
      "scale": [
        0.9999999403953552,
        1.0000001192092896,
        0.9999999403953552
      ],
      "translation": [
        0.009677639231085777,
        0.8167319893836975,
        -0.3827457129955292
      ]
    }
  ],
  "samplers": [
    {
      "magFilter": 9729,
      "minFilter": 9987,
      "wrapS": 10497,
      "wrapT": 10497
    }
  ],
  "scene": 0,
  "scenes": [
    {
      "name": "Sketchfab_Scene",
      "nodes": [
        0
      ]
    }
  ],
  "skins": [
    {
      "inverseBindMatrices": 4,
      "joints": [
        5,
        8,
        9,
        10
      ],
      "skeleton": 5
    }
  ],
  "textures": [
    {
      "sampler": 0,
      "source": 0
    }
  ]
}
