{
  "accessors": [
    {
      "bufferView": 2,
      "componentType": 5126,
      "count": 2946,
      "max": [
        2.5454819202423096,
        3.0855579376220703,
        2.594957113265991
      ],
      "min": [
        -2.3414559364318848,
        0.9975720047950745,
        -1.290621042251587
      ],
      "type": "VEC3"
    },
    {
      "bufferView": 2,
      "byteOffset": 35352,
      "componentType": 5126,
      "count": 2946,
      "max": [
        1.0,
        1.0,
        1.0
      ],
      "min": [
        -1.0,
        -1.0,
        -1.0
      ],
      "type": "VEC3"
    },
    {
      "bufferView": 1,
      "componentType": 5126,
      "count": 2946,
      "max": [
        0.9714170098304749,
        0.9734039902687073
      ],
      "min": [
        0.004999999888241291,
        0.004999999888241291
      ],
      "type": "VEC2"
    },
    {
      "bufferView": 0,
      "componentType": 5125,
      "count": 10800,
      "type": "SCALAR"
    },
    {
      "bufferView": 2,
      "byteOffset": 70704,
      "componentType": 5126,
      "count": 2316,
      "max": [
        2.479477882385254,
        2.9166040420532227,
        1.6536569595336914
      ],
      "min": [
        -2.479477882385254,
        -2.0423529148101807,
        -1.5721770524978638
      ],
      "type": "VEC3"
    },
    {
      "bufferView": 2,
      "byteOffset": 98496,
      "componentType": 5126,
      "count": 2316,
      "max": [
        0.9998952150344849,
        0.9995137453079224,
        1.0
      ],
      "min": [
        -0.9998149871826172,
        -0.9995144605636597,
        -1.0
      ],
      "type": "VEC3"
    },
    {
      "bufferView": 1,
      "byteOffset": 23568,
      "componentType": 5126,
      "count": 2316,
      "max": [
        0.9734539985656738,
        0.9724599719047546
      ],
      "min": [
        0.004999999888241291,
        0.004999999888241291
      ],
      "type": "VEC2"
    },
    {
      "bufferView": 0,
      "byteOffset": 43200,
      "componentType": 5125,
      "count": 9000,
      "type": "SCALAR"
    },
    {
      "bufferView": 2,
      "byteOffset": 126288,
      "componentType": 5126,
      "count": 7725,
      "max": [
        3.311929941177368,
        3.0516560077667236,
        3.0802481174468994
      ],
      "min": [
        -3.2638940811157227,
        -0.359932005405426,
        -1.4979610443115234
      ],
      "type": "VEC3"
    },
    {
      "bufferView": 2,
      "byteOffset": 218988,
      "componentType": 5126,
      "count": 7725,
      "max": [
        0.9998621344566345,
        0.9999709725379944,
        0.9996934533119202
      ],
      "min": [
        -0.9997802376747131,
        -0.999991774559021,
        -0.9998989105224609
      ],
      "type": "VEC3"
    },
    {
      "bufferView": 1,
      "byteOffset": 42096,
      "componentType": 5126,
      "count": 7725,
      "max": [
        0.9778299927711487,
        0.9950000047683716
      ],
      "min": [
        0.004999999888241291,
        0.004999999888241291
      ],
      "type": "VEC2"
    },
    {
      "bufferView": 0,
      "byteOffset": 79200,
      "componentType": 5125,
      "count": 38016,
      "type": "SCALAR"
    },
    {
      "bufferView": 2,
      "byteOffset": 311688,
      "componentType": 5126,
      "count": 5398,
      "max": [
        2.658566951751709,
        1.5475629568099976,
        -0.4693950116634369
      ],
      "min": [
        -2.5117549896240234,
        -1.2866230010986328,
        -1.4394299983978271
      ],
      "type": "VEC3"
    },
    {
      "bufferView": 2,
      "byteOffset": 376464,
      "componentType": 5126,
      "count": 5398,
      "max": [
        0.9998540282249451,
        0.9999842643737793,
        0.9990459084510803
      ],
      "min": [
        -0.99983149766922,
        -0.9998706579208374,
        -0.999692976474762
      ],
      "type": "VEC3"
    },
    {
      "bufferView": 1,
      "byteOffset": 103896,
      "componentType": 5126,
      "count": 5398,
      "max": [
        0.9817910194396973,
        0.9613019824028015
      ],
      "min": [
        0.004999999888241291,
        0.004999999888241291
      ],
      "type": "VEC2"
    },
    {
      "bufferView": 0,
      "byteOffset": 231264,
      "componentType": 5125,
      "count": 23328,
      "type": "SCALAR"
    }
  ],
  "asset": {
    "extras": {
      "author": "Dasha Klyusova (https://sketchfab.com/AnoFail)",
      "license": "CC-BY-4.0 (http://creativecommons.org/licenses/by/4.0/)",
      "source": "https://sketchfab.com/3d-models/little-chestnut-38a428cff1ba46d98b477d876a7624ba",
      "title": "Little Chestnut"
    },
    "generator": "Sketchfab-12.68.0",
    "version": "2.0"
  },
  "bufferViews": [
    {
      "buffer": 0,
      "byteLength": 324576,
      "name": "floatBufferViews",
      "target": 34963
    },
    {
      "buffer": 0,
      "byteLength": 147080,
      "byteOffset": 324576,
      "byteStride": 8,
      "name": "floatBufferViews",
      "target": 34962
    },
    {
      "buffer": 0,
      "byteLength": 441240,
      "byteOffset": 471656,
      "byteStride": 12,
      "name": "floatBufferViews",
      "target": 34962
    }
  ],
  "buffers": [
    {
      "byteLength": 912896,
      "uri": "scene.bin"
    }
  ],
  "images": [
    {
      "uri": "textures/Fire_emissuuive_transparent_baseColor.png"
    },
    {
      "uri": "textures/Fire_emissuuive_transparent_metallicRoughness.png"
    }
  ],
  "materials": [
    {
      "doubleSided": true,
      "emissiveFactor": [
        1.0,
        1.0,
        1.0
      ],
      "emissiveTexture": {
        "index": 0
      },
      "name": "Fire_emissuuive_transparent",
      "occlusionTexture": {
        "index": 1
      },
      "pbrMetallicRoughness": {
        "baseColorTexture": {
          "index": 0
        },
        "metallicFactor": 0.0,
        "metallicRoughnessTexture": {
          "index": 1
        },
        "roughnessFactor": 0.6
      }
    },
    {
      "doubleSided": true,
      "emissiveFactor": [
        0.016690834408353034,
        0.016690834408353034,
        0.016690834408353034
      ],
      "emissiveTexture": {
        "index": 0
      },
      "name": "None",
      "occlusionTexture": {
        "index": 1
      },
      "pbrMetallicRoughness": {
        "baseColorTexture": {
          "index": 0
        },
        "metallicFactor": 0.0,
        "metallicRoughnessTexture": {
          "index": 1
        }
      }
    }
  ],
  "meshes": [
    {
      "name": "Object_0",
      "primitives": [
        {
          "attributes": {
            "NORMAL": 1,
            "POSITION": 0,
            "TEXCOORD_0": 2
          },
          "indices": 3,
          "material": 0,
          "mode": 4
        }
      ]
    },
    {
      "name": "Object_1",
      "primitives": [
        {
          "attributes": {
            "NORMAL": 5,
            "POSITION": 4,
            "TEXCOORD_0": 6
          },
          "indices": 7,
          "material": 1,
          "mode": 4
        }
      ]
    },
    {
      "name": "Object_2",
      "primitives": [
        {
          "attributes": {
            "NORMAL": 9,
            "POSITION": 8,
            "TEXCOORD_0": 10
          },
          "indices": 11,
          "material": 1,
          "mode": 4
        }
      ]
    },
    {
      "name": "Object_3",
      "primitives": [
        {
          "attributes": {
            "NORMAL": 13,
            "POSITION": 12,
            "TEXCOORD_0": 14
          },
          "indices": 15,
          "material": 1,
          "mode": 4
        }
      ]
    }
  ],
  "nodes": [
    {
      "children": [
        1
      ],
      "matrix": [
        1.0,
        0.0,
        0.0,
        0.0,
        0.0,
        2.220446049250313e-16,
        -1.0,
        0.0,
        0.0,
        1.0,
        2.220446049250313e-16,
        0.0,
        0.0,
        0.0,
        0.0,
        1.0
      ],
      "name": "Sketchfab_model"
    },
    {
      "children": [
        2,
        3,
        4,
        5
      ],
      "name": "01.obj.cleaner.materialmerger.gles"
    },
    {
      "mesh": 0,
      "name": "Object_2"
    },
    {
      "mesh": 1,
      "name": "Object_3"
    },
    {
      "mesh": 2,
      "name": "Object_4"
    },
    {
      "mesh": 3,
      "name": "Object_5"
    }
  ],
  "samplers": [
    {
      "magFilter": 9729,
      "minFilter": 9987,
      "wrapS": 10497,
      "wrapT": 10497
    }
  ],
  "scene": 0,
  "scenes": [
    {
      "name": "Sketchfab_Scene",
      "nodes": [
        0
      ]
    }
  ],
  "textures": [
    {
      "sampler": 0,
      "source": 0
    },
    {
      "sampler": 0,
      "source": 1
    }
  ]
}
