<svg width="269" height="350" viewBox="0 0 269 350" fill="none" xmlns="http://www.w3.org/2000/svg">
<g filter="url(#filter0_dd_10_118)">
<circle cx="161.87" cy="297.053" r="17.8524" fill="url(#paint0_linear_10_118)" shape-rendering="crispEdges"/>
</g>
<g filter="url(#filter1_dd_10_118)">
<circle cx="216.313" cy="240.075" r="13.2074" fill="url(#paint1_linear_10_118)" shape-rendering="crispEdges"/>
</g>
<circle cx="134.033" cy="134.033" r="134.033" fill="url(#paint2_radial_10_118)" fill-opacity="0.6"/>
<g filter="url(#filter2_d_10_118)">
<ellipse cx="161.603" cy="164.1" rx="80.306" ry="50.3095" fill="url(#paint3_linear_10_118)" fill-opacity="0.5" shape-rendering="crispEdges"/>
<path d="M241.391 164.1C241.391 177.75 232.558 190.186 218.113 199.236C203.675 208.281 183.697 213.892 161.603 213.892C139.509 213.892 119.531 208.281 105.093 199.236C90.6476 190.186 81.8145 177.75 81.8145 164.1C81.8145 150.45 90.6476 138.014 105.093 128.964C119.531 119.919 139.509 114.308 161.603 114.308C183.697 114.308 203.675 119.919 218.113 128.964C232.558 138.014 241.391 150.45 241.391 164.1Z" stroke="url(#paint4_linear_10_118)" stroke-opacity="0.6" stroke-width="1.03515" shape-rendering="crispEdges"/>
</g>
<circle cx="161.602" cy="117.189" r="101.881" fill="url(#paint5_radial_10_118)"/>
<ellipse cx="161.601" cy="134.033" rx="99.6057" ry="58.2712" fill="url(#paint6_linear_10_118)" fill-opacity="0.5"/>
<path d="M260.689 134.033C260.689 149.865 249.717 164.292 231.772 174.79C213.839 185.281 189.031 191.787 161.601 191.787C134.171 191.787 109.364 185.281 91.4308 174.79C73.4856 164.292 62.5132 149.865 62.5132 134.033C62.5132 118.202 73.4856 103.774 91.4308 93.276C109.364 82.785 134.171 76.2795 161.601 76.2795C189.031 76.2795 213.839 82.785 231.772 93.276C249.717 103.774 260.689 118.202 260.689 134.033Z" stroke="url(#paint7_linear_10_118)" stroke-opacity="0.6" stroke-width="1.03515"/>
<circle cx="161.601" cy="117.188" r="75.4652" fill="url(#paint8_radial_10_118)"/>
<circle cx="161.601" cy="117.188" r="75.4652" fill="url(#paint9_radial_10_118)"/>
<g filter="url(#filter3_d_10_118)">
<ellipse cx="161.602" cy="97.856" rx="98.5926" ry="56.9237" fill="url(#paint10_linear_10_118)" fill-opacity="0.5" shape-rendering="crispEdges"/>
<path d="M259.677 97.856C259.677 113.312 248.822 127.403 231.059 137.659C213.309 147.907 188.753 154.262 161.602 154.262C134.451 154.262 109.895 147.907 92.1452 137.659C74.3817 127.403 63.5269 113.312 63.5269 97.856C63.5269 82.4002 74.3817 68.3091 92.1452 58.0532C109.895 47.8051 134.451 41.45 161.602 41.45C188.753 41.45 213.309 47.8051 231.059 58.0532C248.822 68.3091 259.677 82.4002 259.677 97.856Z" stroke="url(#paint11_linear_10_118)" stroke-opacity="0.6" stroke-width="1.03515" shape-rendering="crispEdges"/>
</g>
<g filter="url(#filter4_d_10_118)">
<ellipse cx="161.601" cy="68.4618" rx="76.505" ry="49.4508" fill="url(#paint12_linear_10_118)" fill-opacity="0.5" shape-rendering="crispEdges"/>
<path d="M237.589 68.4618C237.589 81.8828 229.172 94.1035 215.417 102.994C201.668 111.881 182.643 117.395 161.601 117.395C140.56 117.395 121.534 111.881 107.785 102.994C94.0305 94.1035 85.6138 81.8828 85.6138 68.4618C85.6138 55.0408 94.0305 42.82 107.785 33.9295C121.534 25.0423 140.56 19.5286 161.601 19.5286C182.643 19.5286 201.668 25.0423 215.417 33.9295C229.172 42.82 237.589 55.0408 237.589 68.4618Z" stroke="url(#paint13_linear_10_118)" stroke-opacity="0.6" stroke-width="1.03515" shape-rendering="crispEdges"/>
</g>
<ellipse cx="161.603" cy="51.286" rx="47.6186" ry="32.275" fill="url(#paint14_linear_10_118)" fill-opacity="0.5"/>
<path d="M208.704 51.286C208.704 59.9756 203.508 67.9022 194.984 73.6794C186.463 79.4546 174.663 83.0434 161.603 83.0434C148.543 83.0434 136.743 79.4546 128.222 73.6794C119.698 67.9022 114.502 59.9756 114.502 51.286C114.502 42.5964 119.698 34.6697 128.222 28.8926C136.743 23.1173 148.543 19.5286 161.603 19.5286C174.663 19.5286 186.463 23.1173 194.984 28.8926C203.508 34.6697 208.704 42.5964 208.704 51.286Z" stroke="url(#paint15_linear_10_118)" stroke-opacity="0.6" stroke-width="1.03515"/>
<ellipse cx="161.602" cy="40.268" rx="27.5689" ry="18.9691" fill="url(#paint16_linear_10_118)" fill-opacity="0.5"/>
<path d="M188.653 40.268C188.653 45.2868 185.697 49.8871 180.803 53.2548C175.911 56.6209 169.124 58.7195 161.602 58.7195C154.08 58.7195 147.294 56.6209 142.401 53.2548C137.507 49.8871 134.551 45.2868 134.551 40.268C134.551 35.2491 137.507 30.6488 142.401 27.2812C147.294 23.915 154.08 21.8164 161.602 21.8164C169.124 21.8164 175.911 23.915 180.803 27.2812C185.697 30.6488 188.653 35.2491 188.653 40.268Z" stroke="url(#paint17_linear_10_118)" stroke-opacity="0.6" stroke-width="1.03515"/>
<circle cx="161.602" cy="117.188" r="101.881" fill="url(#paint18_radial_10_118)" fill-opacity="0.3"/>
<defs>
<filter id="filter0_dd_10_118" x="107.788" y="240.9" width="108.165" height="108.166" filterUnits="userSpaceOnUse" color-interpolation-filters="sRGB">
<feFlood flood-opacity="0" result="BackgroundImageFix"/>
<feColorMatrix in="SourceAlpha" type="matrix" values="0 0 0 0 0 0 0 0 0 0 0 0 0 0 0 0 0 0 127 0" result="hardAlpha"/>
<feOffset dy="-2.07031"/>
<feGaussianBlur stdDeviation="18.1152"/>
<feComposite in2="hardAlpha" operator="out"/>
<feColorMatrix type="matrix" values="0 0 0 0 0.371081 0 0 0 0 0.235903 0 0 0 0 0.658333 0 0 0 1 0"/>
<feBlend mode="normal" in2="BackgroundImageFix" result="effect1_dropShadow_10_118"/>
<feColorMatrix in="SourceAlpha" type="matrix" values="0 0 0 0 0 0 0 0 0 0 0 0 0 0 0 0 0 0 127 0" result="hardAlpha"/>
<feOffset dy="-2.07031"/>
<feGaussianBlur stdDeviation="10.3515"/>
<feComposite in2="hardAlpha" operator="out"/>
<feColorMatrix type="matrix" values="0 0 0 0 0.48825 0 0 0 0 0.372778 0 0 0 0 0.733333 0 0 0 1 0"/>
<feBlend mode="normal" in2="effect1_dropShadow_10_118" result="effect2_dropShadow_10_118"/>
<feBlend mode="normal" in="SourceGraphic" in2="effect2_dropShadow_10_118" result="shape"/>
</filter>
<filter id="filter1_dd_10_118" x="166.876" y="188.566" width="98.8754" height="98.8756" filterUnits="userSpaceOnUse" color-interpolation-filters="sRGB">
<feFlood flood-opacity="0" result="BackgroundImageFix"/>
<feColorMatrix in="SourceAlpha" type="matrix" values="0 0 0 0 0 0 0 0 0 0 0 0 0 0 0 0 0 0 127 0" result="hardAlpha"/>
<feOffset dy="-2.07031"/>
<feGaussianBlur stdDeviation="18.1152"/>
<feComposite in2="hardAlpha" operator="out"/>
<feColorMatrix type="matrix" values="0 0 0 0 0.371081 0 0 0 0 0.235903 0 0 0 0 0.658333 0 0 0 1 0"/>
<feBlend mode="normal" in2="BackgroundImageFix" result="effect1_dropShadow_10_118"/>
<feColorMatrix in="SourceAlpha" type="matrix" values="0 0 0 0 0 0 0 0 0 0 0 0 0 0 0 0 0 0 127 0" result="hardAlpha"/>
<feOffset dy="-2.07031"/>
<feGaussianBlur stdDeviation="10.3515"/>
<feComposite in2="hardAlpha" operator="out"/>
<feColorMatrix type="matrix" values="0 0 0 0 0.48825 0 0 0 0 0.372778 0 0 0 0 0.733333 0 0 0 1 0"/>
<feBlend mode="normal" in2="effect1_dropShadow_10_118" result="effect2_dropShadow_10_118"/>
<feBlend mode="normal" in="SourceGraphic" in2="effect2_dropShadow_10_118" result="shape"/>
</filter>
<filter id="filter2_d_10_118" x="70.9453" y="104.474" width="181.315" height="121.322" filterUnits="userSpaceOnUse" color-interpolation-filters="sRGB">
<feFlood flood-opacity="0" result="BackgroundImageFix"/>
<feColorMatrix in="SourceAlpha" type="matrix" values="0 0 0 0 0 0 0 0 0 0 0 0 0 0 0 0 0 0 127 0" result="hardAlpha"/>
<feOffset dy="1.03515"/>
<feGaussianBlur stdDeviation="5.17577"/>
<feComposite in2="hardAlpha" operator="out"/>
<feColorMatrix type="matrix" values="0 0 0 0 0.440043 0 0 0 0 0.20092 0 0 0 0 0.679167 0 0 0 0.3 0"/>
<feBlend mode="normal" in2="BackgroundImageFix" result="effect1_dropShadow_10_118"/>
<feBlend mode="normal" in="SourceGraphic" in2="effect1_dropShadow_10_118" result="shape"/>
</filter>
<filter id="filter3_d_10_118" x="57.8335" y="36.7918" width="207.537" height="124.199" filterUnits="userSpaceOnUse" color-interpolation-filters="sRGB">
<feFlood flood-opacity="0" result="BackgroundImageFix"/>
<feColorMatrix in="SourceAlpha" type="matrix" values="0 0 0 0 0 0 0 0 0 0 0 0 0 0 0 0 0 0 127 0" result="hardAlpha"/>
<feOffset dy="1.03515"/>
<feGaussianBlur stdDeviation="2.58789"/>
<feComposite in2="hardAlpha" operator="out"/>
<feColorMatrix type="matrix" values="0 0 0 0 0.369333 0 0 0 0 0.0916667 0 0 0 0 0.5 0 0 0 0.15 0"/>
<feBlend mode="normal" in2="BackgroundImageFix" result="effect1_dropShadow_10_118"/>
<feBlend mode="normal" in="SourceGraphic" in2="effect1_dropShadow_10_118" result="shape"/>
</filter>
<filter id="filter4_d_10_118" x="78.3677" y="12.2825" width="168.537" height="114.429" filterUnits="userSpaceOnUse" color-interpolation-filters="sRGB">
<feFlood flood-opacity="0" result="BackgroundImageFix"/>
<feColorMatrix in="SourceAlpha" type="matrix" values="0 0 0 0 0 0 0 0 0 0 0 0 0 0 0 0 0 0 127 0" result="hardAlpha"/>
<feOffset dx="1.03515" dy="1.03515"/>
<feGaussianBlur stdDeviation="3.88183"/>
<feComposite in2="hardAlpha" operator="out"/>
<feColorMatrix type="matrix" values="0 0 0 0 0.440043 0 0 0 0 0.20092 0 0 0 0 0.679167 0 0 0 0.2 0"/>
<feBlend mode="normal" in2="BackgroundImageFix" result="effect1_dropShadow_10_118"/>
<feBlend mode="normal" in="SourceGraphic" in2="effect1_dropShadow_10_118" result="shape"/>
</filter>
<linearGradient id="paint0_linear_10_118" x1="161.87" y1="271.439" x2="161.87" y2="334.052" gradientUnits="userSpaceOnUse">
<stop stop-color="white"/>
<stop offset="0.223958" stop-color="#6BE4FF"/>
<stop offset="0.623188" stop-color="#371B73" stop-opacity="0.6"/>
<stop offset="1" stop-color="#0A1153" stop-opacity="0.4"/>
</linearGradient>
<linearGradient id="paint1_linear_10_118" x1="216.313" y1="221.125" x2="216.313" y2="267.446" gradientUnits="userSpaceOnUse">
<stop stop-color="white"/>
<stop offset="0.223958" stop-color="#6BE4FF"/>
<stop offset="0.623188" stop-color="#371B73" stop-opacity="0.6"/>
<stop offset="1" stop-color="#0A1153" stop-opacity="0.4"/>
</linearGradient>
<radialGradient id="paint2_radial_10_118" cx="0" cy="0" r="1" gradientUnits="userSpaceOnUse" gradientTransform="translate(134.033 134.033) rotate(90) scale(134.033)">
<stop stop-color="#FF65C1"/>
<stop offset="1" stop-color="#FF65C1" stop-opacity="0"/>
</radialGradient>
<linearGradient id="paint3_linear_10_118" x1="161.603" y1="113.791" x2="161.603" y2="214.41" gradientUnits="userSpaceOnUse">
<stop stop-color="#13154D"/>
<stop offset="1" stop-color="#8E92EE" stop-opacity="0"/>
</linearGradient>
<linearGradient id="paint4_linear_10_118" x1="201.488" y1="170.443" x2="206.033" y2="221.197" gradientUnits="userSpaceOnUse">
<stop stop-color="white" stop-opacity="0"/>
<stop offset="1" stop-color="white"/>
</linearGradient>
<radialGradient id="paint5_radial_10_118" cx="0" cy="0" r="1" gradientUnits="userSpaceOnUse" gradientTransform="translate(59.7207 154.25) rotate(-19.6638) scale(216.38)">
<stop offset="0.249306" stop-color="white"/>
<stop offset="0.48315" stop-color="#FF8FED" stop-opacity="0.5"/>
<stop offset="0.627037" stop-color="#220C7A" stop-opacity="0.5"/>
</radialGradient>
<linearGradient id="paint6_linear_10_118" x1="70.124" y1="146.418" x2="258.913" y2="125.109" gradientUnits="userSpaceOnUse">
<stop stop-color="white"/>
<stop offset="1" stop-color="#12178E" stop-opacity="0.4"/>
</linearGradient>
<linearGradient id="paint7_linear_10_118" x1="177.416" y1="217" x2="147.279" y2="145.1" gradientUnits="userSpaceOnUse">
<stop offset="0.0011346" stop-color="white"/>
<stop offset="1" stop-color="white" stop-opacity="0"/>
</linearGradient>
<radialGradient id="paint8_radial_10_118" cx="0" cy="0" r="1" gradientUnits="userSpaceOnUse" gradientTransform="translate(104.524 155.509) rotate(-14.8494) scale(149.529)">
<stop offset="0.239373" stop-color="white"/>
<stop offset="0.410099" stop-color="#FFCEF1"/>
<stop offset="0.67492" stop-color="#B6B9FF"/>
<stop offset="0.861176" stop-color="#FFA8E7"/>
<stop offset="1" stop-color="white"/>
</radialGradient>
<radialGradient id="paint9_radial_10_118" cx="0" cy="0" r="1" gradientUnits="userSpaceOnUse" gradientTransform="translate(233.097 175.519) rotate(-121.724) scale(85.9799)">
<stop stop-color="#3F52FF"/>
<stop offset="1" stop-color="#3F52FF" stop-opacity="0"/>
</radialGradient>
<linearGradient id="paint10_linear_10_118" x1="65.1324" y1="93.9327" x2="260.194" y2="99.9928" gradientUnits="userSpaceOnUse">
<stop stop-color="white"/>
<stop offset="1" stop-color="#5653FF" stop-opacity="0.2"/>
</linearGradient>
<linearGradient id="paint11_linear_10_118" x1="148.618" y1="194.97" x2="142.489" y2="102.116" gradientUnits="userSpaceOnUse">
<stop stop-color="white"/>
<stop offset="1" stop-color="white" stop-opacity="0"/>
</linearGradient>
<linearGradient id="paint12_linear_10_118" x1="161.601" y1="19.011" x2="161.601" y2="117.913" gradientUnits="userSpaceOnUse">
<stop stop-color="#13154D" stop-opacity="0.5"/>
<stop offset="1" stop-color="#8E92EE" stop-opacity="0"/>
</linearGradient>
<linearGradient id="paint13_linear_10_118" x1="174.973" y1="139.384" x2="185.12" y2="30.0204" gradientUnits="userSpaceOnUse">
<stop stop-color="white"/>
<stop offset="1" stop-color="white" stop-opacity="0"/>
</linearGradient>
<linearGradient id="paint14_linear_10_118" x1="161.603" y1="19.011" x2="161.603" y2="83.561" gradientUnits="userSpaceOnUse">
<stop stop-color="#13154D"/>
<stop offset="1" stop-color="#8E92EE" stop-opacity="0"/>
</linearGradient>
<linearGradient id="paint15_linear_10_118" x1="180.655" y1="131.052" x2="161.603" y2="19.011" gradientUnits="userSpaceOnUse">
<stop stop-color="white"/>
<stop offset="1" stop-color="white" stop-opacity="0"/>
</linearGradient>
<linearGradient id="paint16_linear_10_118" x1="161.602" y1="21.2988" x2="161.602" y2="59.2371" gradientUnits="userSpaceOnUse">
<stop stop-color="#13154D"/>
<stop offset="1" stop-color="#8E92EE" stop-opacity="0"/>
</linearGradient>
<linearGradient id="paint17_linear_10_118" x1="176.488" y1="99.2358" x2="161.602" y2="21.2988" gradientUnits="userSpaceOnUse">
<stop stop-color="white"/>
<stop offset="1" stop-color="white" stop-opacity="0"/>
</linearGradient>
<radialGradient id="paint18_radial_10_118" cx="0" cy="0" r="1" gradientUnits="userSpaceOnUse" gradientTransform="translate(59.7207 154.25) rotate(-19.6638) scale(216.38)">
<stop offset="0.249306" stop-color="white"/>
<stop offset="0.48315" stop-color="#FF8FED" stop-opacity="0.5"/>
<stop offset="0.627037" stop-color="#220C7A" stop-opacity="0"/>
</radialGradient>
</defs>
</svg>
